# xmcd
#
# Track frame offsets: 
#        150
#        17430
#        36421
#        53558
#        66696
#        82430
#        100665
#        117795
#        129317
#        140649
#        162419
#
# Disc length: 2410 seconds
#
# Revision: 0
# Processed by: cddbd v1.5.2PL0 Copyright (c) Steve Scherf et al.
# Submitted via: ExactAudioCopyFreeDBPlugin 1.0
#
DISCID=9a09680b
DTITLE=Pinson, Bobby - Songs for Somebody
DYEAR=2007
DGENRE=Country-Rock
TTITLE0=Back in My Drinkin' Days
TTITLE1=Just to Prove I Could
TTITLE2=Don't Think I Don't Think About It
TTITLE3=Right to Be Wrong
TTITLE4=If I Met God Tonight
TTITLE5=I Probably Will
TTITLE6=This Close to Heaven
TTITLE7=Past Comin' Back
TTITLE8=Takin' Up Space
TTITLE9=If I Don't Make It Back
TTITLE10=The Miles
EXTD=
EXTT0=
EXTT1=
EXTT2=
EXTT3=
EXTT4=
EXTT5=
EXTT6=
EXTT7=
EXTT8=
EXTT9=
EXTT10=
PLAYORDER=
